<svg width="6280" height="1463" viewBox="0 0 6280 1463" fill="none" xmlns="http://www.w3.org/2000/svg">
<path d="M1210.32 0C1328.4 8.92677e-06 1424.13 95.7254 1424.13 213.809V1209.84C1424.13 1327.93 1328.4 1423.65 1210.32 1423.65H214.281C96.1981 1423.65 0.472656 1327.93 0.472656 1209.84V213.809C0.472916 95.7255 96.1981 4.2625e-05 214.281 0H1210.32ZM685.262 269.43C640.819 269.43 596.376 272.46 551.934 278.521C508.501 283.571 469.614 292.156 435.272 304.276C415.071 311.347 398.911 320.943 386.79 333.063C375.679 344.174 370.124 360.335 370.124 381.546V1095.15C370.124 1121.41 373.154 1142.62 379.214 1158.79C385.274 1174.95 394.365 1187.57 406.485 1196.66C418.606 1205.75 433.252 1211.81 450.423 1214.84C468.604 1218.88 489.311 1220.9 512.542 1220.9C535.773 1220.9 559.004 1219.39 582.235 1216.36C606.477 1213.33 624.153 1210.3 635.264 1207.27V928.492H742.835C804.448 928.492 858.487 920.916 904.949 905.766C952.422 889.605 991.309 867.384 1021.61 839.103C1052.92 809.811 1076.15 775.468 1091.3 736.076C1107.47 695.674 1115.55 650.726 1115.55 601.233C1115.55 499.218 1078.68 418.413 1004.94 358.819C931.21 299.226 824.649 269.43 685.262 269.43ZM706.473 481.542C751.925 481.542 786.268 492.147 809.499 513.358C833.74 533.559 845.86 562.851 845.86 601.233C845.86 641.636 834.245 671.938 811.014 692.139C788.792 711.33 756.47 720.926 714.048 720.926H633.749V486.087C644.859 484.067 655.465 483.057 665.565 483.057C676.676 482.047 690.312 481.542 706.473 481.542Z" fill="black"/>
<path d="M2321.83 652.466C2357.46 652.466 2384.6 644.407 2403.26 628.29C2422.78 611.325 2432.53 585.877 2432.53 551.946C2432.53 519.711 2422.35 495.111 2401.99 478.146C2382.48 460.332 2353.64 451.425 2315.47 451.425C2301.9 451.425 2290.44 451.849 2281.11 452.697C2272.63 452.697 2263.72 453.546 2254.39 455.242V652.466H2321.83ZM2255.67 1060.91C2246.33 1063.46 2231.49 1066 2211.13 1068.54C2191.62 1071.09 2172.11 1072.36 2152.6 1072.36C2133.09 1072.36 2115.7 1070.67 2100.43 1067.27C2086.01 1064.73 2073.71 1059.64 2063.53 1052C2053.35 1044.37 2045.72 1033.77 2040.63 1020.19C2035.54 1006.62 2032.99 988.807 2032.99 966.752V367.446C2032.99 349.632 2037.66 336.06 2046.99 326.729C2057.17 316.549 2070.74 308.491 2087.71 302.553C2116.55 292.373 2149.21 285.163 2185.68 280.922C2223.01 275.832 2260.33 273.287 2297.65 273.287C2414.72 273.287 2504.21 298.311 2566.13 348.36C2628.06 398.408 2659.02 466.27 2659.02 551.946C2659.02 593.511 2652.23 631.259 2638.66 665.19C2625.94 698.273 2606.43 727.114 2580.13 751.714C2554.68 775.466 2522.02 794.128 2482.15 807.7C2443.13 820.424 2397.75 826.787 2346.01 826.787H2255.67V1060.91ZM2687.38 275.832C2687.38 243.598 2697.98 216.453 2719.19 194.398C2741.25 172.343 2770.09 161.315 2805.71 161.315C2841.34 161.315 2869.76 172.343 2890.97 194.398C2913.02 216.453 2924.05 243.598 2924.05 275.832C2924.05 308.067 2913.02 335.211 2890.97 357.266C2869.76 379.322 2841.34 390.349 2805.71 390.349C2770.09 390.349 2741.25 379.322 2719.19 357.266C2697.98 335.211 2687.38 308.067 2687.38 275.832ZM2913.87 1064.73C2904.54 1066.42 2890.54 1068.54 2871.88 1071.09C2854.07 1074.48 2835.83 1076.18 2817.17 1076.18C2798.5 1076.18 2781.54 1074.91 2766.27 1072.36C2751.85 1069.82 2739.55 1064.73 2729.37 1057.09C2719.19 1049.46 2711.13 1039.28 2705.19 1026.56C2700.1 1012.98 2697.56 995.593 2697.56 974.386V456.515C2706.89 454.818 2720.46 452.697 2738.28 450.153C2756.94 446.759 2775.6 445.063 2794.26 445.063C2812.93 445.063 2829.47 446.335 2843.89 448.88C2859.16 451.425 2871.88 456.515 2882.06 464.149C2892.24 471.784 2899.87 482.387 2904.96 495.959C2910.9 508.684 2913.87 525.649 2913.87 546.856V1064.73ZM3284.43 428.522C3335.33 428.522 3382.41 435.308 3425.67 448.88C3469.78 461.604 3507.53 481.539 3538.91 508.684C3570.3 535.828 3594.9 570.183 3612.71 611.749C3630.53 652.466 3639.43 701.242 3639.43 758.076C3639.43 812.366 3631.8 859.869 3616.53 900.586C3601.26 941.304 3579.63 975.659 3551.64 1003.65C3523.64 1030.8 3489.71 1051.16 3449.84 1064.73C3410.82 1078.3 3367.14 1085.09 3318.79 1085.09C3282.31 1085.09 3248.38 1079.57 3216.99 1068.54V1279.77C3208.51 1282.31 3194.94 1284.85 3176.27 1287.4C3157.61 1290.79 3138.53 1292.49 3119.02 1292.49C3100.35 1292.49 3083.39 1291.22 3068.12 1288.67C3053.7 1286.13 3041.4 1281.04 3031.22 1273.4C3021.04 1265.77 3013.41 1255.17 3008.32 1241.59C3003.23 1228.87 3000.68 1211.9 3000.68 1190.7V579.939C3000.68 557.035 3005.35 538.373 3014.68 523.952C3024.86 509.532 3038.43 496.384 3055.4 484.508C3081.69 467.542 3114.35 453.97 3153.37 443.791C3192.39 433.611 3236.08 428.522 3284.43 428.522ZM3286.97 914.583C3374.35 914.583 3418.03 862.414 3418.03 758.076C3418.03 703.787 3407.01 663.494 3384.95 637.197C3363.74 610.901 3332.78 597.752 3292.06 597.752C3275.95 597.752 3261.53 599.873 3248.8 604.114C3236.08 607.508 3225.05 611.749 3215.72 616.839V896.769C3225.9 901.859 3236.93 906.1 3248.8 909.493C3260.68 912.886 3273.4 914.583 3286.97 914.583ZM4021.11 1086.36C3971.06 1086.36 3924.4 1079.57 3881.14 1066C3838.73 1051.58 3801.4 1030.37 3769.17 1002.38C3737.78 974.386 3712.76 939.183 3694.1 896.769C3676.28 854.355 3667.38 804.731 3667.38 747.897C3667.38 691.911 3676.28 643.983 3694.1 604.114C3712.76 563.397 3736.93 530.315 3766.62 504.866C3796.31 478.57 3830.25 459.484 3868.42 447.608C3906.59 434.884 3945.61 428.522 3985.48 428.522C4030.44 428.522 4071.16 435.308 4107.63 448.88C4144.95 462.453 4176.77 481.115 4203.06 504.866C4230.21 528.618 4250.99 557.035 4265.41 590.118C4280.68 623.201 4288.31 659.252 4288.31 698.273C4288.31 727.114 4280.25 749.169 4264.14 764.438C4248.02 779.707 4225.54 789.462 4196.7 793.704L3882.41 840.783C3891.74 868.776 3910.83 889.983 3939.67 904.404C3968.51 917.976 4001.6 924.762 4038.92 924.762C4073.7 924.762 4106.36 920.521 4136.9 912.038C4168.28 902.707 4193.73 892.104 4213.24 880.228C4226.81 888.711 4238.27 900.586 4247.6 915.855C4256.93 931.124 4261.59 947.242 4261.59 964.207C4261.59 1002.38 4243.78 1030.8 4208.15 1049.46C4181.01 1063.88 4150.47 1073.63 4116.54 1078.72C4082.61 1083.81 4050.8 1086.36 4021.11 1086.36ZM3985.48 586.301C3965.12 586.301 3947.31 589.694 3932.04 596.48C3917.62 603.266 3905.74 612.173 3896.41 623.201C3887.08 633.38 3879.87 645.256 3874.78 658.828C3870.54 671.552 3867.99 684.701 3867.14 698.273L4084.73 662.645C4082.18 645.68 4072.85 628.714 4056.73 611.749C4040.62 594.783 4016.87 586.301 3985.48 586.301ZM4561.66 1064.73C4552.33 1066.42 4538.34 1068.54 4519.67 1071.09C4501.86 1074.48 4483.62 1076.18 4464.96 1076.18C4446.3 1076.18 4429.33 1074.91 4414.06 1072.36C4399.64 1069.82 4387.34 1064.73 4377.16 1057.09C4366.98 1049.46 4358.93 1039.28 4352.99 1026.56C4347.9 1012.98 4345.35 995.593 4345.35 974.386V236.387C4354.68 234.691 4368.26 232.57 4386.07 230.025C4404.73 226.632 4423.39 224.936 4442.06 224.936C4460.72 224.936 4477.26 226.208 4491.68 228.753C4506.95 231.298 4519.67 236.387 4529.85 244.022C4540.03 251.656 4547.67 262.26 4552.76 275.832C4558.69 288.556 4561.66 305.522 4561.66 326.729V1064.73ZM4642.17 275.832C4642.17 243.598 4652.78 216.453 4673.98 194.398C4696.04 172.343 4724.88 161.315 4760.51 161.315C4796.14 161.315 4824.55 172.343 4845.76 194.398C4867.81 216.453 4878.84 243.598 4878.84 275.832C4878.84 308.067 4867.81 335.211 4845.76 357.266C4824.55 379.322 4796.14 390.349 4760.51 390.349C4724.88 390.349 4696.04 379.322 4673.98 357.266C4652.78 335.211 4642.17 308.067 4642.17 275.832ZM4868.66 1064.73C4859.33 1066.42 4845.33 1068.54 4826.67 1071.09C4808.86 1074.48 4790.62 1076.18 4771.96 1076.18C4753.3 1076.18 4736.33 1074.91 4721.06 1072.36C4706.64 1069.82 4694.34 1064.73 4684.16 1057.09C4673.98 1049.46 4665.92 1039.28 4659.99 1026.56C4654.9 1012.98 4652.35 995.593 4652.35 974.386V456.515C4661.68 454.818 4675.26 452.697 4693.07 450.153C4711.73 446.759 4730.39 445.063 4749.06 445.063C4767.72 445.063 4784.26 446.335 4798.68 448.88C4813.95 451.425 4826.67 456.515 4836.85 464.149C4847.03 471.784 4854.67 482.387 4859.76 495.959C4865.69 508.684 4868.66 525.649 4868.66 546.856V1064.73ZM5347.38 674.097C5347.38 647.801 5339.74 628.714 5324.47 616.839C5310.05 604.114 5290.12 597.752 5264.67 597.752C5247.71 597.752 5230.74 599.873 5213.77 604.114C5197.66 608.356 5183.66 614.718 5171.78 623.201V1064.73C5163.3 1067.27 5149.73 1069.82 5131.07 1072.36C5113.25 1074.91 5094.59 1076.18 5075.08 1076.18C5056.42 1076.18 5039.45 1074.91 5024.19 1072.36C5009.76 1069.82 4997.46 1064.73 4987.29 1057.09C4977.11 1049.46 4969.05 1039.28 4963.11 1026.56C4958.02 1012.98 4955.47 995.593 4955.47 974.386V592.663C4955.47 569.759 4960.14 551.097 4969.47 536.677C4979.65 522.256 4993.22 509.108 5010.19 497.232C5039.03 476.873 5075.08 460.332 5118.34 447.608C5162.45 434.884 5211.23 428.522 5264.67 428.522C5360.53 428.522 5434.33 449.728 5486.07 492.142C5537.82 533.708 5563.69 591.814 5563.69 666.463V1064.73C5555.2 1067.27 5541.63 1069.82 5522.97 1072.36C5505.16 1074.91 5486.49 1076.18 5466.98 1076.18C5448.32 1076.18 5431.36 1074.91 5416.09 1072.36C5401.67 1069.82 5389.37 1064.73 5379.19 1057.09C5369.01 1049.46 5360.95 1039.28 5355.01 1026.56C5349.92 1012.98 5347.38 995.593 5347.38 974.386V674.097ZM5973.41 1086.36C5923.37 1086.36 5876.71 1079.57 5833.45 1066C5791.04 1051.58 5753.71 1030.37 5721.48 1002.38C5690.09 974.386 5665.07 939.183 5646.4 896.769C5628.59 854.355 5619.68 804.731 5619.68 747.897C5619.68 691.911 5628.59 643.983 5646.4 604.114C5665.07 563.397 5689.24 530.315 5718.93 504.866C5748.62 478.57 5782.55 459.484 5820.72 447.608C5858.9 434.884 5897.92 428.522 5937.79 428.522C5982.75 428.522 6023.46 435.308 6059.94 448.88C6097.26 462.453 6129.07 481.115 6155.37 504.866C6182.51 528.618 6203.3 557.035 6217.72 590.118C6232.99 623.201 6240.62 659.252 6240.62 698.273C6240.62 727.114 6232.56 749.169 6216.45 764.438C6200.33 779.707 6177.85 789.462 6149.01 793.704L5834.72 840.783C5844.05 868.776 5863.14 889.983 5891.98 904.404C5920.82 917.976 5953.9 924.762 5991.23 924.762C6026.01 924.762 6058.67 920.521 6089.2 912.038C6120.59 902.707 6146.04 892.104 6165.55 880.228C6179.12 888.711 6190.57 900.586 6199.9 915.855C6209.23 931.124 6213.9 947.242 6213.9 964.207C6213.9 1002.38 6196.09 1030.8 6160.46 1049.46C6133.31 1063.88 6102.78 1073.63 6068.85 1078.72C6034.91 1083.81 6003.1 1086.36 5973.41 1086.36ZM5937.79 586.301C5917.43 586.301 5899.61 589.694 5884.35 596.48C5869.92 603.266 5858.05 612.173 5848.72 623.201C5839.39 633.38 5832.18 645.256 5827.09 658.828C5822.85 671.552 5820.3 684.701 5819.45 698.273L6037.03 662.645C6034.49 645.68 6025.16 628.714 6009.04 611.749C5992.92 594.783 5969.17 586.301 5937.79 586.301Z" fill="black"/>
</svg>
